<?xml version="1.0" encoding="UTF-8" standalone="no"?>
<!DOCTYPE svg PUBLIC "-//W3C//DTD SVG 1.1//EN"
 "http://www.w3.org/Graphics/SVG/1.1/DTD/svg11.dtd">
<!-- Generated by graphviz version 2.40.1 (20161225.0304)
 -->
<!-- Title: dependencies Pages: 1 -->
<svg width="2683pt" height="284pt"
 viewBox="0.00 0.00 2683.00 284.00" xmlns="http://www.w3.org/2000/svg" xmlns:xlink="http://www.w3.org/1999/xlink">
<g id="graph0" class="graph" transform="scale(1 1) rotate(0) translate(4 280)">
<title>dependencies</title>
<polygon fill="#ffffff" stroke="transparent" points="-4,4 -4,-280 2679,-280 2679,4 -4,4"/>
<text text-anchor="start" x="1316.5091" y="-42.4" font-family="sans-serif" font-weight="bold" font-size="14.00" fill="#000000">Legend</text>
<polygon fill="#ffffb3" stroke="transparent" points="1103.5,-10 1103.5,-30 1123.5,-30 1123.5,-10 1103.5,-10"/>
<text text-anchor="start" x="1127.129" y="-15.4" font-family="sans-serif" font-size="14.00" fill="#000000"> &#160;Declarations</text>
<polygon fill="#8dd3c7" stroke="transparent" points="1216.5,-10 1216.5,-30 1236.5,-30 1236.5,-10 1216.5,-10"/>
<text text-anchor="start" x="1240.2251" y="-15.4" font-family="sans-serif" font-size="14.00" fill="#000000"> &#160;Module</text>
<polygon fill="#80b1d3" stroke="transparent" points="1302.5,-10 1302.5,-30 1322.5,-30 1322.5,-10 1302.5,-10"/>
<text text-anchor="start" x="1326.2812" y="-15.4" font-family="sans-serif" font-size="14.00" fill="#000000"> &#160;Bootstrap</text>
<polygon fill="#fdb462" stroke="transparent" points="1399.5,-10 1399.5,-30 1419.5,-30 1419.5,-10 1399.5,-10"/>
<text text-anchor="start" x="1423.1732" y="-15.4" font-family="sans-serif" font-size="14.00" fill="#000000"> &#160;Providers</text>
<polygon fill="#fb8072" stroke="transparent" points="1495.5,-10 1495.5,-30 1515.5,-30 1515.5,-10 1495.5,-10"/>
<text text-anchor="start" x="1519.2258" y="-15.4" font-family="sans-serif" font-size="14.00" fill="#000000"> &#160;Exports</text>
<g id="clust1" class="cluster">
<title>cluster_AppModule</title>
<polygon fill="none" stroke="#000000" stroke-dasharray="1,5" points="8,-70 8,-268 2667,-268 2667,-70 8,-70"/>
</g>
<g id="clust2" class="cluster">
<title>cluster_AppModule_declarations</title>
<polygon fill="none" stroke="#000000" points="896,-78 896,-130 2659,-130 2659,-78 896,-78"/>
</g>
<g id="clust15" class="cluster">
<title>cluster_AppModule_imports</title>
<polygon fill="none" stroke="#000000" points="16,-78 16,-130 888,-130 888,-78 16,-78"/>
</g>
<g id="clust17" class="cluster">
<title>cluster_AppModule_bootstrap</title>
<polygon fill="none" stroke="#000000" points="1345,-208 1345,-260 1469,-260 1469,-208 1345,-208"/>
</g>
<!-- AppComponent -->
<g id="node1" class="node">
<title>AppComponent</title>
<polygon fill="#ffffb3" stroke="#000000" points="2650.9399,-122 2545.0601,-122 2545.0601,-86 2650.9399,-86 2650.9399,-122"/>
<text text-anchor="middle" x="2598" y="-99.8" font-family="Times,serif" font-size="14.00" fill="#000000">AppComponent</text>
</g>
<!-- AppModule -->
<g id="node13" class="node">
<title>AppModule</title>
<polygon fill="#8dd3c7" stroke="#000000" points="1448.6571,-187 1445.6571,-191 1424.6571,-191 1421.6571,-187 1365.3429,-187 1365.3429,-151 1448.6571,-151 1448.6571,-187"/>
<text text-anchor="middle" x="1407" y="-164.8" font-family="Times,serif" font-size="14.00" fill="#000000">AppModule</text>
</g>
<!-- AppComponent&#45;&gt;AppModule -->
<g id="edge1" class="edge">
<title>AppComponent&#45;&gt;AppModule</title>
<path fill="none" stroke="#000000" d="M2598,-122.3228C2598,-145.6602 2598,-183 2598,-183 2598,-183 1458.69,-183 1458.69,-183"/>
<polygon fill="#000000" stroke="#000000" points="1458.69,-179.5001 1448.69,-183 1458.6899,-186.5001 1458.69,-179.5001"/>
</g>
<!-- NavbarComponent -->
<g id="node2" class="node">
<title>NavbarComponent</title>
<polygon fill="#ffffb3" stroke="#000000" points="2527.0297,-122 2404.9703,-122 2404.9703,-86 2527.0297,-86 2527.0297,-122"/>
<text text-anchor="middle" x="2466" y="-99.8" font-family="Times,serif" font-size="14.00" fill="#000000">NavbarComponent</text>
</g>
<!-- NavbarComponent&#45;&gt;AppModule -->
<g id="edge2" class="edge">
<title>NavbarComponent&#45;&gt;AppModule</title>
<path fill="none" stroke="#000000" d="M2466,-122.1554C2466,-144.3519 2466,-179 2466,-179 2466,-179 1458.8402,-179 1458.8402,-179"/>
<polygon fill="#000000" stroke="#000000" points="1458.8403,-175.5001 1448.8402,-179 1458.8402,-182.5001 1458.8403,-175.5001"/>
</g>
<!-- DashboardComponent -->
<g id="node3" class="node">
<title>DashboardComponent</title>
<polygon fill="#ffffb3" stroke="#000000" points="2386.9734,-122 2245.0266,-122 2245.0266,-86 2386.9734,-86 2386.9734,-122"/>
<text text-anchor="middle" x="2316" y="-99.8" font-family="Times,serif" font-size="14.00" fill="#000000">DashboardComponent</text>
</g>
<!-- DashboardComponent&#45;&gt;AppModule -->
<g id="edge3" class="edge">
<title>DashboardComponent&#45;&gt;AppModule</title>
<path fill="none" stroke="#000000" d="M2316,-122.2843C2316,-143.3211 2316,-175 2316,-175 2316,-175 1458.7194,-175 1458.7194,-175"/>
<polygon fill="#000000" stroke="#000000" points="1458.7194,-171.5001 1448.7194,-175 1458.7194,-178.5001 1458.7194,-171.5001"/>
</g>
<!-- ClientsComponent -->
<g id="node4" class="node">
<title>ClientsComponent</title>
<polygon fill="#ffffb3" stroke="#000000" points="2227.5,-122 2106.5,-122 2106.5,-86 2227.5,-86 2227.5,-122"/>
<text text-anchor="middle" x="2167" y="-99.8" font-family="Times,serif" font-size="14.00" fill="#000000">ClientsComponent</text>
</g>
<!-- ClientsComponent&#45;&gt;AppModule -->
<g id="edge4" class="edge">
<title>ClientsComponent&#45;&gt;AppModule</title>
<path fill="none" stroke="#000000" d="M2167,-122.308C2167,-142.1455 2167,-171 2167,-171 2167,-171 1458.6717,-171 1458.6717,-171"/>
<polygon fill="#000000" stroke="#000000" points="1458.6717,-167.5001 1448.6717,-171 1458.6716,-174.5001 1458.6717,-167.5001"/>
</g>
<!-- SidebarComponent -->
<g id="node5" class="node">
<title>SidebarComponent</title>
<polygon fill="#ffffb3" stroke="#000000" points="2088.0954,-122 1963.9046,-122 1963.9046,-86 2088.0954,-86 2088.0954,-122"/>
<text text-anchor="middle" x="2026" y="-99.8" font-family="Times,serif" font-size="14.00" fill="#000000">SidebarComponent</text>
</g>
<!-- SidebarComponent&#45;&gt;AppModule -->
<g id="edge5" class="edge">
<title>SidebarComponent&#45;&gt;AppModule</title>
<path fill="none" stroke="#000000" d="M2026,-122.2222C2026,-140.8285 2026,-167 2026,-167 2026,-167 1459.0597,-167 1459.0597,-167"/>
<polygon fill="#000000" stroke="#000000" points="1459.0598,-163.5001 1449.0597,-167 1459.0597,-170.5001 1459.0598,-163.5001"/>
</g>
<!-- AddClientComponent -->
<g id="node6" class="node">
<title>AddClientComponent</title>
<polygon fill="#ffffb3" stroke="#000000" points="1945.6624,-122 1806.3376,-122 1806.3376,-86 1945.6624,-86 1945.6624,-122"/>
<text text-anchor="middle" x="1876" y="-99.8" font-family="Times,serif" font-size="14.00" fill="#000000">AddClientComponent</text>
</g>
<!-- AddClientComponent&#45;&gt;AppModule -->
<g id="edge6" class="edge">
<title>AddClientComponent&#45;&gt;AppModule</title>
<path fill="none" stroke="#000000" d="M1876,-122.0225C1876,-139.3734 1876,-163 1876,-163 1876,-163 1459.0334,-163 1459.0334,-163"/>
<polygon fill="#000000" stroke="#000000" points="1459.0334,-159.5001 1449.0334,-163 1459.0333,-166.5001 1459.0334,-159.5001"/>
</g>
<!-- EditClientComponent -->
<g id="node7" class="node">
<title>EditClientComponent</title>
<polygon fill="#ffffb3" stroke="#000000" points="1788.3892,-122 1649.6108,-122 1649.6108,-86 1788.3892,-86 1788.3892,-122"/>
<text text-anchor="middle" x="1719" y="-99.8" font-family="Times,serif" font-size="14.00" fill="#000000">EditClientComponent</text>
</g>
<!-- EditClientComponent&#45;&gt;AppModule -->
<g id="edge7" class="edge">
<title>EditClientComponent&#45;&gt;AppModule</title>
<path fill="none" stroke="#000000" d="M1719,-122.0091C1719,-138.0494 1719,-159 1719,-159 1719,-159 1458.754,-159 1458.754,-159"/>
<polygon fill="#000000" stroke="#000000" points="1458.754,-155.5001 1448.754,-159 1458.7539,-162.5001 1458.754,-155.5001"/>
</g>
<!-- ClientDetailComponent -->
<g id="node8" class="node">
<title>ClientDetailComponent</title>
<polygon fill="#ffffb3" stroke="#000000" points="1631.7632,-122 1482.2368,-122 1482.2368,-86 1631.7632,-86 1631.7632,-122"/>
<text text-anchor="middle" x="1557" y="-99.8" font-family="Times,serif" font-size="14.00" fill="#000000">ClientDetailComponent</text>
</g>
<!-- ClientDetailComponent&#45;&gt;AppModule -->
<g id="edge8" class="edge">
<title>ClientDetailComponent&#45;&gt;AppModule</title>
<path fill="none" stroke="#000000" d="M1557,-122.1243C1557,-136.7832 1557,-155 1557,-155 1557,-155 1458.7834,-155 1458.7834,-155"/>
<polygon fill="#000000" stroke="#000000" points="1458.7834,-151.5001 1448.7834,-155 1458.7833,-158.5001 1458.7834,-151.5001"/>
</g>
<!-- LoginComponent -->
<g id="node9" class="node">
<title>LoginComponent</title>
<polygon fill="#ffffb3" stroke="#000000" points="1464.2758,-122 1349.7242,-122 1349.7242,-86 1464.2758,-86 1464.2758,-122"/>
<text text-anchor="middle" x="1407" y="-99.8" font-family="Times,serif" font-size="14.00" fill="#000000">LoginComponent</text>
</g>
<!-- LoginComponent&#45;&gt;AppModule -->
<g id="edge9" class="edge">
<title>LoginComponent&#45;&gt;AppModule</title>
<path fill="none" stroke="#000000" d="M1407,-122.1061C1407,-122.1061 1407,-140.991 1407,-140.991"/>
<polygon fill="#000000" stroke="#000000" points="1403.5001,-140.9909 1407,-150.991 1410.5001,-140.991 1403.5001,-140.9909"/>
</g>
<!-- RegisterComponent -->
<g id="node10" class="node">
<title>RegisterComponent</title>
<polygon fill="#ffffb3" stroke="#000000" points="1331.9846,-122 1204.0154,-122 1204.0154,-86 1331.9846,-86 1331.9846,-122"/>
<text text-anchor="middle" x="1268" y="-99.8" font-family="Times,serif" font-size="14.00" fill="#000000">RegisterComponent</text>
</g>
<!-- RegisterComponent&#45;&gt;AppModule -->
<g id="edge10" class="edge">
<title>RegisterComponent&#45;&gt;AppModule</title>
<path fill="none" stroke="#000000" d="M1268,-122.1243C1268,-136.7832 1268,-155 1268,-155 1268,-155 1355.2954,-155 1355.2954,-155"/>
<polygon fill="#000000" stroke="#000000" points="1355.2955,-158.5001 1365.2954,-155 1355.2954,-151.5001 1355.2955,-158.5001"/>
</g>
<!-- SettingsComponent -->
<g id="node11" class="node">
<title>SettingsComponent</title>
<polygon fill="#ffffb3" stroke="#000000" points="1186.4468,-122 1059.5532,-122 1059.5532,-86 1186.4468,-86 1186.4468,-122"/>
<text text-anchor="middle" x="1123" y="-99.8" font-family="Times,serif" font-size="14.00" fill="#000000">SettingsComponent</text>
</g>
<!-- SettingsComponent&#45;&gt;AppModule -->
<g id="edge11" class="edge">
<title>SettingsComponent&#45;&gt;AppModule</title>
<path fill="none" stroke="#000000" d="M1123,-122.0091C1123,-138.0494 1123,-159 1123,-159 1123,-159 1355.0948,-159 1355.0948,-159"/>
<polygon fill="#000000" stroke="#000000" points="1355.0949,-162.5001 1365.0948,-159 1355.0948,-155.5001 1355.0949,-162.5001"/>
</g>
<!-- NotFoundComponent -->
<g id="node12" class="node">
<title>NotFoundComponent</title>
<polygon fill="#ffffb3" stroke="#000000" points="1042.1122,-122 903.8878,-122 903.8878,-86 1042.1122,-86 1042.1122,-122"/>
<text text-anchor="middle" x="973" y="-99.8" font-family="Times,serif" font-size="14.00" fill="#000000">NotFoundComponent</text>
</g>
<!-- NotFoundComponent&#45;&gt;AppModule -->
<g id="edge12" class="edge">
<title>NotFoundComponent&#45;&gt;AppModule</title>
<path fill="none" stroke="#000000" d="M973,-122.0225C973,-139.3734 973,-163 973,-163 973,-163 1354.9919,-163 1354.9919,-163"/>
<polygon fill="#000000" stroke="#000000" points="1354.9919,-166.5001 1364.9919,-163 1354.9919,-159.5001 1354.9919,-166.5001"/>
</g>
<!-- AppComponent  -->
<g id="node19" class="node">
<title>AppComponent </title>
<polygon fill="#80b1d3" stroke="#000000" points="1461.439,-252 1352.561,-252 1352.561,-216 1461.439,-216 1461.439,-252"/>
<text text-anchor="middle" x="1407" y="-229.8" font-family="Times,serif" font-size="14.00" fill="#000000">AppComponent </text>
</g>
<!-- AppModule&#45;&gt;AppComponent  -->
<g id="edge18" class="edge">
<title>AppModule&#45;&gt;AppComponent </title>
<path fill="none" stroke="#000000" stroke-dasharray="1,5" d="M1407,-187.1061C1407,-187.1061 1407,-205.991 1407,-205.991"/>
<polygon fill="#000000" stroke="#000000" points="1403.5001,-205.9909 1407,-215.991 1410.5001,-205.991 1403.5001,-205.9909"/>
</g>
<!-- BrowserModule -->
<g id="node14" class="node">
<title>BrowserModule</title>
<polygon fill="#8dd3c7" stroke="#000000" points="880.4734,-122 877.4734,-126 856.4734,-126 853.4734,-122 773.5266,-122 773.5266,-86 880.4734,-86 880.4734,-122"/>
<text text-anchor="middle" x="827" y="-99.8" font-family="Times,serif" font-size="14.00" fill="#000000">BrowserModule</text>
</g>
<!-- BrowserModule&#45;&gt;AppModule -->
<g id="edge13" class="edge">
<title>BrowserModule&#45;&gt;AppModule</title>
<path fill="none" stroke="#000000" d="M827,-122.2222C827,-140.8285 827,-167 827,-167 827,-167 1355.2878,-167 1355.2878,-167"/>
<polygon fill="#000000" stroke="#000000" points="1355.2879,-170.5001 1365.2878,-167 1355.2878,-163.5001 1355.2879,-170.5001"/>
</g>
<!-- AppRoutingModule -->
<g id="node15" class="node">
<title>AppRoutingModule</title>
<polygon fill="#8dd3c7" stroke="#000000" points="755.2744,-122 752.2744,-126 731.2744,-126 728.2744,-122 626.7256,-122 626.7256,-86 755.2744,-86 755.2744,-122"/>
<text text-anchor="middle" x="691" y="-99.8" font-family="Times,serif" font-size="14.00" fill="#000000">AppRoutingModule</text>
</g>
<!-- AppRoutingModule&#45;&gt;AppModule -->
<g id="edge14" class="edge">
<title>AppRoutingModule&#45;&gt;AppModule</title>
<path fill="none" stroke="#000000" d="M691,-122.308C691,-142.1455 691,-171 691,-171 691,-171 1355.1474,-171 1355.1474,-171"/>
<polygon fill="#000000" stroke="#000000" points="1355.1474,-174.5001 1365.1474,-171 1355.1473,-167.5001 1355.1474,-174.5001"/>
</g>
<!-- AngularFireModule.initializeApp(args) -->
<g id="node16" class="node">
<title>AngularFireModule.initializeApp(args)</title>
<polygon fill="#8dd3c7" stroke="#000000" points="608.7057,-122 605.7057,-126 584.7057,-126 581.7057,-122 371.2943,-122 371.2943,-86 608.7057,-86 608.7057,-122"/>
<text text-anchor="middle" x="490" y="-99.8" font-family="Times,serif" font-size="14.00" fill="#000000">AngularFireModule.initializeApp(args)</text>
</g>
<!-- AngularFireModule.initializeApp(args)&#45;&gt;AppModule -->
<g id="edge15" class="edge">
<title>AngularFireModule.initializeApp(args)&#45;&gt;AppModule</title>
<path fill="none" stroke="#000000" d="M490,-122.2843C490,-143.3211 490,-175 490,-175 490,-175 1355.2156,-175 1355.2156,-175"/>
<polygon fill="#000000" stroke="#000000" points="1355.2156,-178.5001 1365.2156,-175 1355.2155,-171.5001 1355.2156,-178.5001"/>
</g>
<!-- AngularFirestoreModule -->
<g id="node17" class="node">
<title>AngularFirestoreModule</title>
<polygon fill="#8dd3c7" stroke="#000000" points="353.6811,-122 350.6811,-126 329.6811,-126 326.6811,-122 198.3189,-122 198.3189,-86 353.6811,-86 353.6811,-122"/>
<text text-anchor="middle" x="276" y="-99.8" font-family="Times,serif" font-size="14.00" fill="#000000">AngularFirestoreModule</text>
</g>
<!-- AngularFirestoreModule&#45;&gt;AppModule -->
<g id="edge16" class="edge">
<title>AngularFirestoreModule&#45;&gt;AppModule</title>
<path fill="none" stroke="#000000" d="M276,-122.1554C276,-144.3519 276,-179 276,-179 276,-179 1355.0673,-179 1355.0673,-179"/>
<polygon fill="#000000" stroke="#000000" points="1355.0674,-182.5001 1365.0673,-179 1355.0673,-175.5001 1355.0674,-182.5001"/>
</g>
<!-- AngularFireAuthModule -->
<g id="node18" class="node">
<title>AngularFireAuthModule</title>
<polygon fill="#8dd3c7" stroke="#000000" points="179.9678,-122 176.9678,-126 155.9678,-126 152.9678,-122 24.0322,-122 24.0322,-86 179.9678,-86 179.9678,-122"/>
<text text-anchor="middle" x="102" y="-99.8" font-family="Times,serif" font-size="14.00" fill="#000000">AngularFireAuthModule</text>
</g>
<!-- AngularFireAuthModule&#45;&gt;AppModule -->
<g id="edge17" class="edge">
<title>AngularFireAuthModule&#45;&gt;AppModule</title>
<path fill="none" stroke="#000000" d="M102,-122.3228C102,-145.6602 102,-183 102,-183 102,-183 1355.0583,-183 1355.0583,-183"/>
<polygon fill="#000000" stroke="#000000" points="1355.0584,-186.5001 1365.0583,-183 1355.0583,-179.5001 1355.0584,-186.5001"/>
</g>
</g>
</svg>
